<?xml version="1.0" encoding="UTF-8"?>
<svg id="Layer_1" xmlns="http://www.w3.org/2000/svg" xmlns:xlink="http://www.w3.org/1999/xlink" version="1.1" viewBox="0 0 403.7 102.2">
  <!-- Generator: Adobe Illustrator 29.2.1, SVG Export Plug-In . SVG Version: 2.1.0 Build 116)  -->
  <defs>
    <style>
      .st0 {
        fill: none;
      }

      .st1 {
        fill: #d8fa02;
        fill-rule: evenodd;
      }

      .st2 {
        fill: #fff;
      }

      .st3 {
        clip-path: url(#clippath);
      }
    </style>
    <clipPath id="clippath">
      <rect class="st0" x="141.8" width="117" height="57"/>
    </clipPath>
  </defs>
  <g class="st3">
    <path class="st1" d="M155.2,50.9V6.5h5.5v44.4h-5.5ZM259.3,42.1h-5.5v-22.5h5.5v22.5ZM246,50.9h-5.5V6.5h5.5v44.4ZM227.1,38.1h-2.4l-24.2,19.2-24.2-19.2h-2.4v19.2h-5.5v-24.7h9.7l22.3,17.7,22.3-17.7h9.7v24.7h-5.5v-19.2ZM220.7,24.8h11.8V0h-5.5v19.2h-8.3l-18.3,14.5-18.3-14.5h-8.3V0h-5.5v24.7h11.8l20.2,16,20.2-16ZM141.8,42.1v-22.5h5.5v22.5h-5.5Z"/>
  </g>
  <path class="st2" d="M29.2,101.8v-14.9c-.1,0-7.2,12-7.2,12h-4.9l-7.1-11.4v14.4H0v-32.7h9l10.6,17.4,10.4-17.4h9.1v32.7c0,0-9.9,0-9.9,0Z"/>
  <path class="st2" d="M41.8,76.2h10.5v25.5h-10.5v-25.5ZM47.1,74.2c-1.9,0-3.4-.5-4.6-1.5-1.2-1-1.8-2.3-1.8-3.9s.6-2.8,1.8-3.9c1.2-1,2.7-1.5,4.6-1.5s3.5.5,4.6,1.5c1.2,1,1.7,2.2,1.7,3.7s-.6,2.9-1.7,4c-1.2,1-2.7,1.6-4.6,1.6Z"/>
  <path class="st2" d="M72.4,75.8c3.1,0,5.7,1,7.6,2.9,1.9,1.9,2.9,4.8,2.9,8.6v14.6h-10.5v-12.8c0-2.9-1-4.4-3.1-4.4s-2.1.4-2.9,1.3c-.7.8-1.1,2.1-1.1,3.9v12h-10.5v-34.6h10.5v11.1c2-1.7,4.4-2.5,7.2-2.5Z"/>
  <path class="st2" d="M96.6,75.8c4.5,0,7.9,1,10.3,3,2.4,2,3.6,5.1,3.6,9.3v13.7h-9.8v-3.4c-1.2,2.5-3.6,3.8-7.2,3.8s-3.7-.3-5.1-1c-1.4-.7-2.5-1.6-3.2-2.8-.7-1.2-1.1-2.6-1.1-4,0-2.5,1-4.4,2.9-5.8,1.9-1.3,4.9-2,8.8-2h4.2c-.3-2-1.9-3-4.8-3s-2.3.2-3.5.5c-1.2.3-2.2.8-3,1.5l-3.4-7c1.5-.9,3.2-1.6,5.3-2.1,2.1-.5,4.1-.8,6.2-.8ZM96.5,95.9c.7,0,1.4-.2,2-.6.6-.4,1-1,1.3-1.8v-1.8h-2.6c-2.1,0-3.2.7-3.2,2.1s.2,1.1.7,1.5c.5.4,1.1.6,1.9.6Z"/>
  <path class="st2" d="M112.6,76.2h10.5v25.5h-10.5v-25.5ZM117.9,74.2c-1.9,0-3.4-.5-4.6-1.5-1.2-1-1.8-2.3-1.8-3.9s.6-2.8,1.8-3.9c1.2-1,2.7-1.5,4.6-1.5s3.5.5,4.6,1.5c1.2,1,1.7,2.2,1.7,3.7s-.6,2.9-1.7,4c-1.2,1-2.7,1.6-4.6,1.6Z"/>
  <path class="st2" d="M125.5,67.1h10.5v34.6h-10.5v-34.6Z"/>
  <path class="st2" d="M151.9,102.2c-2.8,0-5.4-.6-7.6-1.7-2.3-1.1-4-2.7-5.3-4.7-1.3-2-1.9-4.3-1.9-6.9s.6-4.8,1.9-6.8c1.3-2,3-3.6,5.3-4.7,2.3-1.1,4.8-1.7,7.6-1.7s5.4.6,7.7,1.7c2.3,1.1,4,2.7,5.3,4.7,1.3,2,1.9,4.3,1.9,6.8s-.6,4.8-1.9,6.9c-1.3,2-3,3.6-5.3,4.7-2.3,1.1-4.8,1.7-7.7,1.7ZM151.9,94c1.2,0,2.2-.4,3-1.3.8-.9,1.2-2.1,1.2-3.7s-.4-2.8-1.2-3.7c-.8-.9-1.8-1.3-3-1.3s-2.2.4-3,1.3c-.8.9-1.2,2.1-1.2,3.7s.4,2.8,1.2,3.7c.8.9,1.8,1.3,3,1.3Z"/>
  <path class="st2" d="M208.5,93.2v8.5h-30v-6.8l14.9-17.4h-14.5v-8.5h28.8v6.8l-14.9,17.4h15.7Z"/>
  <path class="st2" d="M209.1,76.2h10.5v25.5h-10.5v-25.5ZM214.3,74.2c-1.9,0-3.4-.5-4.6-1.5-1.2-1-1.8-2.3-1.8-3.9s.6-2.8,1.8-3.9c1.2-1,2.7-1.5,4.6-1.5s3.5.5,4.6,1.5c1.2,1,1.7,2.2,1.7,3.7s-.6,2.9-1.7,4c-1.2,1-2.7,1.6-4.6,1.6Z"/>
  <path class="st2" d="M250.3,76.2l-10.3,25.5h-10.9l-10.3-25.5h10.8l5.1,13.7,5.5-13.7h10Z"/>
  <path class="st2" d="M261.1,75.8c4.5,0,7.9,1,10.3,3,2.4,2,3.6,5.1,3.6,9.3v13.7h-9.8v-3.4c-1.2,2.5-3.6,3.8-7.2,3.8s-3.7-.3-5.1-1c-1.4-.7-2.5-1.6-3.2-2.8-.7-1.2-1.1-2.6-1.1-4,0-2.5,1-4.4,2.9-5.8,1.9-1.3,4.9-2,8.8-2h4.2c-.3-2-1.9-3-4.8-3s-2.3.2-3.5.5c-1.2.3-2.2.8-3,1.5l-3.4-7c1.5-.9,3.2-1.6,5.3-2.1,2.1-.5,4.1-.8,6.2-.8ZM261,95.9c.7,0,1.4-.2,2-.6.6-.4,1-1,1.3-1.8v-1.8h-2.6c-2.1,0-3.2.7-3.2,2.1s.2,1.1.7,1.5c.5.4,1.1.6,1.9.6Z"/>
  <path class="st2" d="M294.9,75.8c3.1,0,5.7,1,7.6,2.9,1.9,1.9,2.9,4.8,2.9,8.6v14.6h-10.5v-12.8c0-2.9-1-4.4-3.1-4.4s-2.1.4-2.9,1.3c-.7.8-1.1,2.1-1.1,3.9v12h-10.5v-25.5h10v2.5c1-1,2.1-1.8,3.4-2.3,1.3-.5,2.7-.8,4.3-.8Z"/>
  <path class="st2" d="M321,102.2c-2.8,0-5.4-.6-7.6-1.7-2.3-1.1-4-2.7-5.3-4.7-1.3-2-1.9-4.3-1.9-6.9s.6-4.8,1.9-6.8c1.3-2,3-3.6,5.3-4.7,2.3-1.1,4.8-1.7,7.6-1.7s5.4.6,7.7,1.7c2.3,1.1,4,2.7,5.3,4.7,1.3,2,1.9,4.3,1.9,6.8s-.6,4.8-1.9,6.9c-1.3,2-3,3.6-5.3,4.7-2.3,1.1-4.8,1.7-7.7,1.7ZM321,94c1.2,0,2.2-.4,3-1.3.8-.9,1.2-2.1,1.2-3.7s-.4-2.8-1.2-3.7c-.8-.9-1.8-1.3-3-1.3s-2.2.4-3,1.3c-.8.9-1.2,2.1-1.2,3.7s.4,2.8,1.2,3.7c.8.9,1.8,1.3,3,1.3Z"/>
  <path class="st2" d="M365.3,76.2l-10.3,25.5h-10.9l-10.3-25.5h10.8l5.1,13.7,5.5-13.7h10Z"/>
  <path class="st2" d="M364.6,76.2h10.5v25.5h-10.5v-25.5ZM369.8,74.2c-1.9,0-3.4-.5-4.6-1.5-1.2-1-1.8-2.3-1.8-3.9s.6-2.8,1.8-3.9c1.2-1,2.7-1.5,4.6-1.5s3.5.5,4.6,1.5c1.2,1,1.7,2.2,1.7,3.7s-.6,2.9-1.7,4c-1.2,1-2.7,1.6-4.6,1.6Z"/>
  <path class="st2" d="M391.2,102.2c-2.9,0-5.5-.6-7.8-1.7-2.3-1.1-4.1-2.7-5.4-4.7-1.3-2-1.9-4.3-1.9-6.9s.6-4.8,1.9-6.8c1.3-2,3.1-3.6,5.4-4.7,2.3-1.1,4.9-1.7,7.8-1.7s5.8.7,8,2c2.2,1.3,3.7,3.2,4.6,5.5l-8.2,4c-1-2.2-2.5-3.4-4.4-3.4s-2.3.4-3.1,1.3c-.8.9-1.2,2.1-1.2,3.7s.4,2.9,1.2,3.8c.8.9,1.9,1.3,3.1,1.3,2,0,3.4-1.1,4.4-3.4l8.2,4c-.8,2.4-2.4,4.2-4.6,5.5s-4.9,2-8,2ZM391.5,66h10l-9.2,7.5h-7l6.1-7.5Z"/>
</svg>